<svg xmlns="http://www.w3.org/2000/svg" width="266.56" height="200" viewBox="0 0 266.56 200">
 <g fill="#eb6565">
  <path d="m265.1 103.35-67.878 67.878c-0.97107 0.97107-2.0878 1.4566-3.3502 1.4566-1.2624 0-2.3792-0.48553-3.3503-1.4566l-7.283-7.2831c-0.97107-0.97107-1.4566-2.0878-1.4566-3.3502s0.48553-2.3791 1.4566-3.3502l57.245-57.245-57.245-57.245c-0.97107-0.97107-1.4566-2.0878-1.4566-3.3502 0-1.2624 0.48553-2.3792 1.4566-3.3503l7.283-7.283c0.97107-0.97107 2.0878-1.4566 3.3503-1.4566 1.2624 0 2.3791 0.48553 3.3502 1.4566l67.878 67.878c0.97107 0.97107 1.4566 2.0878 1.4566 3.3502 0 1.2624-0.48554 2.3791-1.4566 3.3503z"/>
  <path d="m83.318 163.95-7.283 7.2831c-0.97113 0.97107-2.0879 1.4566-3.3503 1.4566s-2.3791-0.48553-3.3502-1.4566l-67.878-67.878c-0.97107-0.97113-1.4566-2.0879-1.4566-3.3503 0-1.2624 0.48554-2.3791 1.4566-3.3502l67.878-67.878c0.97107-0.97107 2.0878-1.4566 3.3502-1.4566s2.3791 0.48553 3.3503 1.4566l7.283 7.283c0.97107 0.97107 1.4566 2.0878 1.4566 3.3503 0 1.2624-0.48553 2.3791-1.4566 3.3502l-57.245 57.245 57.245 57.245c0.97107 0.97107 1.4566 2.0878 1.4566 3.3502s-0.48553 2.3791-1.4566 3.3502z"/>
  <path d="m169.4 8.5246-54.332 188.05c-0.38838 1.2624-1.141 2.2092-2.2578 2.8404-1.1167 0.63117-2.2577 0.75253-3.423 0.36409l-9.031-2.4762c-1.2624-0.38839-2.2092-1.141-2.8404-2.2578-0.63123-1.1167-0.75262-2.3063-0.36418-3.5687l54.332-188.05c0.38844-1.2624 1.141-2.2092 2.2578-2.8404 1.1168-0.63122 2.2578-0.75261 3.4231-0.36417l9.031 2.4762c1.2624 0.38844 2.2092 1.141 2.8404 2.2578 0.63117 1.1167 0.75256 2.3063 0.36418 3.5687z"/>
 </g>
</svg>
